<svg xmlns="http://www.w3.org/2000/svg" viewBox="0 0 570.43 570.43"><defs><style>.cls-1{fill:none;}.cls-2,.cls-4{fill:#f5f5f5;}.cls-3,.cls-4{isolation:isolate;}.cls-4{font-size:20.65px;font-family:Raleway-SemiBold, Raleway;font-weight:600;letter-spacing:0.07em;}</style></defs><g id="Layer_2" data-name="Layer 2"><g id="Layer_1-2" data-name="Layer 1"><rect id="Rectangle_2" data-name="Rectangle 2" class="cls-1" width="570.43" height="570.43" rx="5.1"/><g id="Group_1" data-name="Group 1"><path id="Path_1" data-name="Path 1" class="cls-2" d="M33,393.89V279.15H65.88a54.73,54.73,0,0,1,30.06,7.68,48.27,48.27,0,0,1,18,20.69A67.48,67.48,0,0,1,120,336.36a65.73,65.73,0,0,1-6.63,30.38,48,48,0,0,1-18.82,20,56,56,0,0,1-28.69,7.11Zm81.32-57.53a61.34,61.34,0,0,0-5.66-26.83A43.44,43.44,0,0,0,92.3,291a49,49,0,0,0-26.42-6.71H38.69V388.71H65.88a48.82,48.82,0,0,0,26.67-6.86A43.12,43.12,0,0,0,108.87,363a63.23,63.23,0,0,0,5.49-26.66Z"/><path id="Path_2" data-name="Path 2" class="cls-2" d="M338.3,284.32h-43V393.89h-5.65V284.32h-43v-5.16H338.3Z"/><path id="Path_3" data-name="Path 3" class="cls-2" d="M425.62,296.12A47.08,47.08,0,0,0,419,290.3a31.51,31.51,0,0,0-7.27-3.87,44.28,44.28,0,0,0-8.24-2.18,58.48,58.48,0,0,0-9.53-.72q-18.27,0-26.51,7a23.09,23.09,0,0,0-8.24,18.58,19.63,19.63,0,0,0,3.56,12.44,23.69,23.69,0,0,0,11.31,7.19,173.16,173.16,0,0,0,20,5.26,152.27,152.27,0,0,1,21.81,6,33.57,33.57,0,0,1,14.22,9.22,23.63,23.63,0,0,1,5,16A27.9,27.9,0,0,1,432.31,378a25,25,0,0,1-8.15,9.29,38.33,38.33,0,0,1-12.85,5.57,69.79,69.79,0,0,1-16.73,1.86,74.8,74.8,0,0,1-17.13-1.86,57.18,57.18,0,0,1-14.87-5.73,62.29,62.29,0,0,1-13.08-9.86l3.39-4.2a49.9,49.9,0,0,0,8.48,7.35,50.7,50.7,0,0,0,9.86,5.25,56.22,56.22,0,0,0,11.15,3.15,69.22,69.22,0,0,0,12.36,1.05q16.15,0,25.45-6.06a19.94,19.94,0,0,0,9.3-17.85,20.17,20.17,0,0,0-4-13.17,28.86,28.86,0,0,0-12.29-8.08,135,135,0,0,0-21-5.73,161.56,161.56,0,0,1-21.09-5.66A28.62,28.62,0,0,1,358,324.75a23,23,0,0,1-4.44-14.87,28.88,28.88,0,0,1,5-17.21A30.93,30.93,0,0,1,372.6,282a56.67,56.67,0,0,1,21.17-3.64,59,59,0,0,1,13.57,1.46,44.4,44.4,0,0,1,11.4,4.36,42.57,42.57,0,0,1,9.93,7.74Z"/><circle id="Ellipse_6" data-name="Ellipse 6" class="cls-2" cx="188.45" cy="336.56" r="58.08"/><path id="Path_4" data-name="Path 4" class="cls-2" d="M120.74,505.87a28.89,28.89,0,0,1-4,14.87A30,30,0,0,1,106,531.56a28.51,28.51,0,0,1-14.87,4H33V420.87H89.71a23.16,23.16,0,0,1,14,4.28,28.27,28.27,0,0,1,9,11,32.61,32.61,0,0,1,3.15,14,30.48,30.48,0,0,1-4.37,16,25.91,25.91,0,0,1-12.13,10.67,28.35,28.35,0,0,1,15.61,11A30.49,30.49,0,0,1,120.74,505.87ZM38.69,426v49.13H87.78a20,20,0,0,0,11.71-3.56,24.93,24.93,0,0,0,8-9.21,25.4,25.4,0,0,0,2.91-11.8,27.29,27.29,0,0,0-2.75-12.2,23.1,23.1,0,0,0-7.67-9A19.38,19.38,0,0,0,88.75,426Zm76.56,79.34A26,26,0,0,0,104,483.81a20.2,20.2,0,0,0-11.72-3.64H38.69v50.26H91.17a21.47,21.47,0,0,0,12.13-3.64,27,27,0,0,0,8.73-9.37,24.21,24.21,0,0,0,3.23-12Z"/><path id="Path_5" data-name="Path 5" class="cls-2" d="M251.09,420.87l42.33,54,42.18-54h6.62L296.49,479l44.44,56.56h-6.61l-40.88-52.36-41,52.36h-6.79L290.05,479l-45.74-58.17Z"/><path id="Path_6" data-name="Path 6" class="cls-2" d="M435,530.43v5.16H359.19V420.87h74.34V426H364.85v48.33H425v5.16H364.85v50.9Z"/><path id="Path_7" data-name="Path 7" class="cls-2" d="M523.22,437.83a46.94,46.94,0,0,0-6.63-5.81,31.57,31.57,0,0,0-7.27-3.88,44.17,44.17,0,0,0-8.25-2.18,58.48,58.48,0,0,0-9.53-.72q-18.26,0-26.5,6.94a23.06,23.06,0,0,0-8.24,18.59,19.64,19.64,0,0,0,3.55,12.44,23.79,23.79,0,0,0,11.32,7.19,172.42,172.42,0,0,0,20,5.25,152.79,152.79,0,0,1,21.82,6,33.71,33.71,0,0,1,14.22,9.21,23.77,23.77,0,0,1,5,16,28.11,28.11,0,0,1-2.84,12.84,25,25,0,0,1-8.16,9.29,38.15,38.15,0,0,1-12.85,5.58,69.76,69.76,0,0,1-16.72,1.86,74.74,74.74,0,0,1-17.13-1.86,57.07,57.07,0,0,1-14.87-5.74A62,62,0,0,1,447.09,519l3.39-4.2a49.91,49.91,0,0,0,18.35,12.61A56.51,56.51,0,0,0,480,530.52a70.16,70.16,0,0,0,12.36,1.05q16.16,0,25.45-6.06a22.43,22.43,0,0,0,5.25-31,28.66,28.66,0,0,0-12.28-8.07,135.17,135.17,0,0,0-21-5.74A163.41,163.41,0,0,1,468.67,475a28.67,28.67,0,0,1-13.1-8.57,23,23,0,0,1-4.44-14.87,28.89,28.89,0,0,1,5-17.21,30.88,30.88,0,0,1,14.06-10.66,56.62,56.62,0,0,1,21.16-3.64,59.1,59.1,0,0,1,13.58,1.46,44.34,44.34,0,0,1,11.39,4.36,42.42,42.42,0,0,1,9.94,7.74Z"/><circle id="Ellipse_7" data-name="Ellipse 7" class="cls-2" cx="188.45" cy="478.27" r="58.08"/><g id="AND" class="cls-3"><text class="cls-4" transform="translate(459.11 385.03)">AND</text></g></g></g></g></svg>